<svg xmlns="http://www.w3.org/2000/svg" xmlns:xlink="http://www.w3.org/1999/xlink" fill="none" version="1.1" width="331" height="289" viewBox="0 0 331 289"><g><path d="M111,89.6L130.092,116.462L75.48,155.756L129.426,225.02L103.23,245L54.834,183.284L54.834,245L4.44,245L4.44,89.6L54.834,89.6L54.834,129.782L111,89.6ZM258.63,134L258.63,245L231.99,245L231.99,235.898L140.97,245L140.97,134L258.63,134ZM191.364,160.64L191.364,213.254L231.99,209.258L231.99,160.64L191.364,160.64ZM323.454,121.346L273.06,121.346L273.06,89.6L323.454,89.6L323.454,121.346ZM323.454,245L273.06,245L273.06,134L323.454,134L323.454,245Z" fill="#3D3D3D" fill-opacity="1"/></g></svg>